<svg xmlns="http://www.w3.org/2000/svg" width="512" height="512" viewBox="0 0 512 512" role="img" aria-label="Darth Vader style helmet icon">
  <path fill="#000000" fill-rule="evenodd" d="M 274 505.05 L 240 505.25 L 213 503.3 L 190 500.25 L 148 491.25 L 106 477.4 L 69 460.37 L 50 449.18 L 36 439.35 L 24 429.1 L 14.66 419 L 8.71 410 L 5.67 401 L 6.71 395 L 76.44 214 L 77.69 133 L 82.72 108 L 90.79 87 L 97.92 74 L 107.71 60 L 123.55 43 L 136 32.81 L 152 22.65 L 167 15.63 L 185 9.75 L 201 6.7 L 219 5.51 L 298 5.61 L 310 6.7 L 326 9.75 L 347 16.85 L 369 28.66 L 387 42.57 L 403.29 60 L 413.08 74 L 420.19 87 L 427.36 105 L 431.3 120 L 433.31 133 L 434.12 148 L 434.56 214 L 505.42 398 L 504.39 405 L 499.29 415 L 490.18 426 L 481 434.46 L 456 452.35 L 424 469.34 L 386 484.32 L 351 494.28 L 314 501.31 Z
    M 471.86 407 L 474 406.26 L 477.43 403 L 478.51 400 L 478.08 395 L 414.29 231 L 409.28 219 L 400.37 202 L 387.07 184 L 377 174.62 L 370 169.68 L 352 161.56 L 340 158.74 L 329 157.52 L 312 157.73 L 297 160.7 L 281 166.7 L 263 177.26 L 256 178.89 L 248 177.28 L 236 169.72 L 220 162.63 L 206 158.78 L 196 157.5 L 179 157.73 L 162 160.68 L 146 166.83 L 135 173.79 L 128 179.84 L 118.79 190 L 110.62 202 L 101.7 219 L 32.39 398 L 34 403.56 L 37 406.27 L 40 407.26 L 45 406.45 L 49.4 402 L 117.69 227 L 124.77 213 L 130.62 204 L 145 188.64 L 154 182.84 L 168 177.6 L 180 175.58 L 197 175.53 L 208 177.59 L 217 180.61 L 245 195.31 L 250 196.43 L 261 196.43 L 271 193.28 L 283 185.68 L 296 179.79 L 307 176.59 L 321 175.21 L 340 176.87 L 357 182.82 L 370.92 193 L 383.18 208 L 396.29 234 L 461.63 402 L 466 406.4 Z
    M 366.07 273 L 372.95 270 L 378.33 264 L 380.21 259 L 380.27 251 L 377.4 239 L 371.24 226 L 366 219.91 L 355 211.67 L 345 206.8 L 335 203.72 L 318 201.89 L 309 202.63 L 297 205.72 L 289 209.53 L 282.62 215 L 277.75 222 L 273.59 234 L 273.42 264 L 274.86 268 L 278 270.42 L 283 272.38 L 291 273.41 Z
    M 224.5 273 L 233 270.42 L 237.38 266 L 237.41 234 L 235.11 226 L 229.21 216 L 222 209.53 L 214 205.72 L 203 202.79 L 193 201.89 L 181 202.77 L 166 206.8 L 156 211.67 L 145 219.91 L 139.76 226 L 135.55 234 L 131.64 246 L 130.79 259 L 134.75 267 L 142 272.21 L 149 273.42 Z
    M 282.36 344 L 282.16 315 L 279.45 306 L 274.38 299 L 267 293.75 L 261 291.71 L 256 291.33 L 246 292.96 L 236.62 299 L 231.55 306 L 228.84 315 L 229 344.5 L 281 344.7 Z
    M 246.14 434 L 246.45 363 L 220 362.81 L 219.7 433 L 221 434.13 Z
    M 290.48 434 L 291.3 433 L 291.19 363 L 265 362.58 L 264.46 433 L 265 434.13 Z
    M 201.23 434 L 201.87 383 L 201 381.44 L 184.13 399 L 184.13 433 L 185 434.13 Z
    M 326.23 434 L 326.87 399 L 310 381.44 L 309.13 383 L 309.13 433 L 310 434.13 Z
    M 365.94 447 L 370 445.31 L 374.1 441 L 375.9 435 L 375.4 430 L 373.35 426 L 370 422.84 L 365 420.86 L 360 420.94 L 354 423.86 L 350.67 428 L 349.58 431 L 349.55 437 L 351.82 442 L 355 445.06 L 360 447.26 Z
    M 151.64 447 L 156 445.06 L 159.18 442 L 161.45 437 L 161.42 431 L 159 426.01 L 155.79 423 L 151 420.94 L 146 420.86 L 141 422.84 L 137 427.05 L 134.99 434 L 135.56 438 L 137.57 442 L 141 445.31 L 146 447.31 Z"/>
</svg>
