<?xml version="1.0" encoding="UTF-8"?>
<svg xmlns="http://www.w3.org/2000/svg" width="50" height="50" viewBox="0 0 50 50" shape-rendering="crispEdges">
  <rect width="50" height="50" fill="#0077c8"/>
  <g>
    <rect x="6" y="6" width="1" height="1" fill="#3a92cc"/>
    <rect x="7" y="6" width="1" height="1" fill="#9ac5e0"/>
    <rect x="8" y="6" width="1" height="1" fill="#9ac6e1"/>
    <rect x="9" y="6" width="1" height="1" fill="#9bc6e1"/>
    <rect x="10" y="6" width="3" height="1" fill="#9bc7e1"/>
    <rect x="13" y="6" width="1" height="1" fill="#9cc6e1"/>
    <rect x="14" y="6" width="1" height="1" fill="#9bc6e0"/>
    <rect x="15" y="6" width="1" height="1" fill="#99c6e0"/>
    <rect x="16" y="6" width="1" height="1" fill="#4a9ace"/>
    <rect x="22" y="6" width="1" height="1" fill="#107bc3"/>
    <rect x="23" y="6" width="1" height="1" fill="#7bb5d9"/>
    <rect x="24" y="6" width="1" height="1" fill="#9ac5e0"/>
    <rect x="25" y="6" width="1" height="1" fill="#9bc6e0"/>
    <rect x="26" y="6" width="1" height="1" fill="#9bc6e1"/>
    <rect x="27" y="6" width="1" height="1" fill="#9ac6e1"/>
    <rect x="28" y="6" width="1" height="1" fill="#99c4df"/>
    <rect x="29" y="6" width="1" height="1" fill="#2586c6"/>
    <rect x="6" y="7" width="1" height="1" fill="#7eb6d7"/>
    <rect x="7" y="7" width="1" height="1" fill="#fdfefd"/>
    <rect x="8" y="7" width="5" height="1" fill="#fefefd"/>
    <rect x="13" y="7" width="2" height="1" fill="#fdfefd"/>
    <rect x="15" y="7" width="1" height="1" fill="#fefefe"/>
    <rect x="16" y="7" width="1" height="1" fill="#91c0dd"/>
    <rect x="22" y="7" width="1" height="1" fill="#2c89c4"/>
    <rect x="23" y="7" width="1" height="1" fill="#dbeaf3"/>
    <rect x="24" y="7" width="3" height="1" fill="#fefefd"/>
    <rect x="27" y="7" width="2" height="1" fill="#fefefe"/>
    <rect x="29" y="7" width="1" height="1" fill="#4f9ccc"/>
    <rect x="6" y="8" width="1" height="1" fill="#7fb7d8"/>
    <rect x="7" y="8" width="1" height="1" fill="#fdfefd"/>
    <rect x="8" y="8" width="2" height="1" fill="#fefefe"/>
    <rect x="10" y="8" width="1" height="1" fill="#fefffd"/>
    <rect x="11" y="8" width="2" height="1" fill="#fefefe"/>
    <rect x="13" y="8" width="1" height="1" fill="#fefffe"/>
    <rect x="14" y="8" width="1" height="1" fill="#fefefe"/>
    <rect x="15" y="8" width="1" height="1" fill="#fdfefd"/>
    <rect x="16" y="8" width="1" height="1" fill="#92c2df"/>
    <rect x="22" y="8" width="1" height="1" fill="#2d8ac5"/>
    <rect x="23" y="8" width="1" height="1" fill="#dbeaf2"/>
    <rect x="24" y="8" width="3" height="1" fill="#fefefe"/>
    <rect x="27" y="8" width="1" height="1" fill="#fefffe"/>
    <rect x="28" y="8" width="1" height="1" fill="#fefefd"/>
    <rect x="29" y="8" width="1" height="1" fill="#519ed1"/>
    <rect x="6" y="9" width="1" height="1" fill="#81b7da"/>
    <rect x="7" y="9" width="1" height="1" fill="#fdfdfd"/>
    <rect x="8" y="9" width="1" height="1" fill="#fefefd"/>
    <rect x="9" y="9" width="5" height="1" fill="#fefefe"/>
    <rect x="14" y="9" width="1" height="1" fill="#fefefd"/>
    <rect x="15" y="9" width="1" height="1" fill="#fdfefd"/>
    <rect x="16" y="9" width="1" height="1" fill="#93c2df"/>
    <rect x="22" y="9" width="1" height="1" fill="#2d8bc6"/>
    <rect x="23" y="9" width="1" height="1" fill="#dcebf3"/>
    <rect x="24" y="9" width="1" height="1" fill="#fefefd"/>
    <rect x="25" y="9" width="1" height="1" fill="#fefdfd"/>
    <rect x="26" y="9" width="1" height="1" fill="#fefefe"/>
    <rect x="27" y="9" width="1" height="1" fill="#fefefd"/>
    <rect x="28" y="9" width="1" height="1" fill="#fefefe"/>
    <rect x="29" y="9" width="1" height="1" fill="#519ed1"/>
    <rect x="6" y="10" width="1" height="1" fill="#7fb7d8"/>
    <rect x="7" y="10" width="1" height="1" fill="#fefefd"/>
    <rect x="8" y="10" width="1" height="1" fill="#fefefe"/>
    <rect x="9" y="10" width="1" height="1" fill="#fefefd"/>
    <rect x="10" y="10" width="2" height="1" fill="#fefffe"/>
    <rect x="12" y="10" width="2" height="1" fill="#fefefe"/>
    <rect x="14" y="10" width="2" height="1" fill="#fefefd"/>
    <rect x="16" y="10" width="1" height="1" fill="#92c2df"/>
    <rect x="22" y="10" width="1" height="1" fill="#2d8bc5"/>
    <rect x="23" y="10" width="1" height="1" fill="#dbebf3"/>
    <rect x="24" y="10" width="1" height="1" fill="#fefefe"/>
    <rect x="25" y="10" width="2" height="1" fill="#fefffe"/>
    <rect x="27" y="10" width="2" height="1" fill="#fefefe"/>
    <rect x="29" y="10" width="1" height="1" fill="#519ed1"/>
    <rect x="6" y="11" width="1" height="1" fill="#7db6d8"/>
    <rect x="7" y="11" width="2" height="1" fill="#fefefd"/>
    <rect x="9" y="11" width="1" height="1" fill="#fefefe"/>
    <rect x="10" y="11" width="1" height="1" fill="#fefefd"/>
    <rect x="11" y="11" width="1" height="1" fill="#fefffe"/>
    <rect x="12" y="11" width="1" height="1" fill="#fefefe"/>
    <rect x="13" y="11" width="2" height="1" fill="#fefffe"/>
    <rect x="15" y="11" width="1" height="1" fill="#fefefd"/>
    <rect x="16" y="11" width="1" height="1" fill="#92c2df"/>
    <rect x="22" y="11" width="1" height="1" fill="#2d8ac6"/>
    <rect x="23" y="11" width="1" height="1" fill="#dbebf3"/>
    <rect x="24" y="11" width="1" height="1" fill="#fefffe"/>
    <rect x="25" y="11" width="3" height="1" fill="#fefefe"/>
    <rect x="28" y="11" width="1" height="1" fill="#fefffe"/>
    <rect x="29" y="11" width="1" height="1" fill="#519fd1"/>
    <rect x="6" y="12" width="1" height="1" fill="#3d94cb"/>
    <rect x="7" y="12" width="1" height="1" fill="#93c1de"/>
    <rect x="8" y="12" width="1" height="1" fill="#94c3e1"/>
    <rect x="9" y="12" width="1" height="1" fill="#94c3e0"/>
    <rect x="10" y="12" width="1" height="1" fill="#e5f0f5"/>
    <rect x="11" y="12" width="4" height="1" fill="#fefefe"/>
    <rect x="15" y="12" width="1" height="1" fill="#fefefd"/>
    <rect x="16" y="12" width="1" height="1" fill="#93c2df"/>
    <rect x="22" y="12" width="1" height="1" fill="#2d8ac5"/>
    <rect x="23" y="12" width="1" height="1" fill="#dbebf3"/>
    <rect x="24" y="12" width="1" height="1" fill="#fefefe"/>
    <rect x="25" y="12" width="1" height="1" fill="#fefefd"/>
    <rect x="26" y="12" width="3" height="1" fill="#fefefe"/>
    <rect x="29" y="12" width="1" height="1" fill="#519ed0"/>
    <rect x="10" y="13" width="1" height="1" fill="#c6dfed"/>
    <rect x="11" y="13" width="1" height="1" fill="#fefefd"/>
    <rect x="12" y="13" width="1" height="1" fill="#fefffe"/>
    <rect x="13" y="13" width="1" height="1" fill="#fefefe"/>
    <rect x="14" y="13" width="2" height="1" fill="#fefefd"/>
    <rect x="16" y="13" width="1" height="1" fill="#93c2df"/>
    <rect x="22" y="13" width="1" height="1" fill="#2d8bc6"/>
    <rect x="23" y="13" width="1" height="1" fill="#dbebf3"/>
    <rect x="24" y="13" width="2" height="1" fill="#fefefe"/>
    <rect x="26" y="13" width="2" height="1" fill="#fefefd"/>
    <rect x="28" y="13" width="1" height="1" fill="#fefefe"/>
    <rect x="29" y="13" width="1" height="1" fill="#519ed0"/>
    <rect x="10" y="14" width="1" height="1" fill="#c4deec"/>
    <rect x="11" y="14" width="1" height="1" fill="#fdfefd"/>
    <rect x="12" y="14" width="1" height="1" fill="#fefffe"/>
    <rect x="13" y="14" width="1" height="1" fill="#fefefe"/>
    <rect x="14" y="14" width="1" height="1" fill="#fefffd"/>
    <rect x="15" y="14" width="1" height="1" fill="#fefefe"/>
    <rect x="16" y="14" width="1" height="1" fill="#93c2df"/>
    <rect x="22" y="14" width="1" height="1" fill="#2d8bc5"/>
    <rect x="23" y="14" width="1" height="1" fill="#dbebf3"/>
    <rect x="24" y="14" width="1" height="1" fill="#fefefd"/>
    <rect x="25" y="14" width="2" height="1" fill="#fefffe"/>
    <rect x="27" y="14" width="2" height="1" fill="#fefefe"/>
    <rect x="29" y="14" width="1" height="1" fill="#519fd0"/>
    <rect x="10" y="15" width="1" height="1" fill="#c4deec"/>
    <rect x="11" y="15" width="1" height="1" fill="#fefefd"/>
    <rect x="12" y="15" width="1" height="1" fill="#fefefe"/>
    <rect x="13" y="15" width="1" height="1" fill="#fefffe"/>
    <rect x="14" y="15" width="1" height="1" fill="#fefefe"/>
    <rect x="15" y="15" width="1" height="1" fill="#fefefd"/>
    <rect x="16" y="15" width="1" height="1" fill="#93c2df"/>
    <rect x="22" y="15" width="1" height="1" fill="#2d89c5"/>
    <rect x="23" y="15" width="1" height="1" fill="#dbeaf3"/>
    <rect x="24" y="15" width="2" height="1" fill="#fefffe"/>
    <rect x="26" y="15" width="1" height="1" fill="#fefefe"/>
    <rect x="27" y="15" width="1" height="1" fill="#fefefd"/>
    <rect x="28" y="15" width="1" height="1" fill="#fefffe"/>
    <rect x="29" y="15" width="1" height="1" fill="#519ed0"/>
    <rect x="10" y="16" width="1" height="1" fill="#c4dded"/>
    <rect x="11" y="16" width="1" height="1" fill="#fdfdfd"/>
    <rect x="12" y="16" width="2" height="1" fill="#fefefe"/>
    <rect x="14" y="16" width="1" height="1" fill="#fdfdfe"/>
    <rect x="15" y="16" width="1" height="1" fill="#fdfdfd"/>
    <rect x="16" y="16" width="1" height="1" fill="#92c2df"/>
    <rect x="22" y="16" width="1" height="1" fill="#2d89c5"/>
    <rect x="23" y="16" width="1" height="1" fill="#dbeaf3"/>
    <rect x="24" y="16" width="2" height="1" fill="#fefefe"/>
    <rect x="26" y="16" width="1" height="1" fill="#fefefd"/>
    <rect x="27" y="16" width="2" height="1" fill="#fefefe"/>
    <rect x="29" y="16" width="1" height="1" fill="#519ed0"/>
    <rect x="10" y="17" width="1" height="1" fill="#c4ddec"/>
    <rect x="11" y="17" width="1" height="1" fill="#fefefd"/>
    <rect x="12" y="17" width="1" height="1" fill="#fefffe"/>
    <rect x="13" y="17" width="2" height="1" fill="#fefefe"/>
    <rect x="15" y="17" width="1" height="1" fill="#fefefd"/>
    <rect x="16" y="17" width="1" height="1" fill="#92c1df"/>
    <rect x="22" y="17" width="1" height="1" fill="#2d8ac5"/>
    <rect x="23" y="17" width="1" height="1" fill="#dbebf3"/>
    <rect x="24" y="17" width="1" height="1" fill="#fefefd"/>
    <rect x="25" y="17" width="2" height="1" fill="#fefffe"/>
    <rect x="27" y="17" width="1" height="1" fill="#fefefd"/>
    <rect x="28" y="17" width="1" height="1" fill="#fefefe"/>
    <rect x="29" y="17" width="1" height="1" fill="#519ed0"/>
    <rect x="10" y="18" width="1" height="1" fill="#c3ddeb"/>
    <rect x="11" y="18" width="1" height="1" fill="#fdfefd"/>
    <rect x="12" y="18" width="1" height="1" fill="#fefefe"/>
    <rect x="13" y="18" width="1" height="1" fill="#fefffe"/>
    <rect x="14" y="18" width="1" height="1" fill="#fdfffe"/>
    <rect x="15" y="18" width="1" height="1" fill="#fefefd"/>
    <rect x="16" y="18" width="1" height="1" fill="#93c2df"/>
    <rect x="22" y="18" width="1" height="1" fill="#2d8ac5"/>
    <rect x="23" y="18" width="1" height="1" fill="#dbebf3"/>
    <rect x="24" y="18" width="1" height="1" fill="#fefffe"/>
    <rect x="25" y="18" width="2" height="1" fill="#fefefe"/>
    <rect x="27" y="18" width="1" height="1" fill="#fefefd"/>
    <rect x="28" y="18" width="1" height="1" fill="#fefffd"/>
    <rect x="29" y="18" width="1" height="1" fill="#519fcf"/>
    <rect x="10" y="19" width="1" height="1" fill="#c3ddec"/>
    <rect x="11" y="19" width="1" height="1" fill="#fefefd"/>
    <rect x="12" y="19" width="3" height="1" fill="#fefefe"/>
    <rect x="15" y="19" width="1" height="1" fill="#fefefd"/>
    <rect x="16" y="19" width="1" height="1" fill="#93c2df"/>
    <rect x="22" y="19" width="1" height="1" fill="#2d89c6"/>
    <rect x="23" y="19" width="1" height="1" fill="#dbebf3"/>
    <rect x="24" y="19" width="1" height="1" fill="#fefffe"/>
    <rect x="25" y="19" width="1" height="1" fill="#fefefe"/>
    <rect x="26" y="19" width="2" height="1" fill="#fefefd"/>
    <rect x="28" y="19" width="1" height="1" fill="#fefefe"/>
    <rect x="29" y="19" width="1" height="1" fill="#519dce"/>
    <rect x="10" y="20" width="1" height="1" fill="#c3dcec"/>
    <rect x="11" y="20" width="1" height="1" fill="#fdfdfd"/>
    <rect x="12" y="20" width="1" height="1" fill="#fefefe"/>
    <rect x="13" y="20" width="1" height="1" fill="#fefefd"/>
    <rect x="14" y="20" width="1" height="1" fill="#fefdfd"/>
    <rect x="15" y="20" width="1" height="1" fill="#fefefd"/>
    <rect x="16" y="20" width="1" height="1" fill="#92c1de"/>
    <rect x="22" y="20" width="1" height="1" fill="#2d89c6"/>
    <rect x="23" y="20" width="1" height="1" fill="#dcebf3"/>
    <rect x="24" y="20" width="2" height="1" fill="#fefefe"/>
    <rect x="26" y="20" width="3" height="1" fill="#fefefd"/>
    <rect x="29" y="20" width="1" height="1" fill="#529ecf"/>
    <rect x="10" y="21" width="1" height="1" fill="#c3ddec"/>
    <rect x="11" y="21" width="1" height="1" fill="#fefefd"/>
    <rect x="12" y="21" width="2" height="1" fill="#fefefe"/>
    <rect x="14" y="21" width="2" height="1" fill="#fefefd"/>
    <rect x="16" y="21" width="1" height="1" fill="#93c2df"/>
    <rect x="22" y="21" width="1" height="1" fill="#2d8bc6"/>
    <rect x="23" y="21" width="1" height="1" fill="#dbebf3"/>
    <rect x="24" y="21" width="1" height="1" fill="#fefefe"/>
    <rect x="25" y="21" width="1" height="1" fill="#fefffd"/>
    <rect x="26" y="21" width="1" height="1" fill="#fefefe"/>
    <rect x="27" y="21" width="1" height="1" fill="#fefefd"/>
    <rect x="28" y="21" width="1" height="1" fill="#fefefe"/>
    <rect x="29" y="21" width="1" height="1" fill="#519ed0"/>
    <rect x="10" y="22" width="1" height="1" fill="#c3ddeb"/>
    <rect x="11" y="22" width="1" height="1" fill="#fefefd"/>
    <rect x="12" y="22" width="1" height="1" fill="#fefefe"/>
    <rect x="13" y="22" width="1" height="1" fill="#fefffd"/>
    <rect x="14" y="22" width="1" height="1" fill="#fefefe"/>
    <rect x="15" y="22" width="1" height="1" fill="#fefefd"/>
    <rect x="16" y="22" width="1" height="1" fill="#93c2df"/>
    <rect x="22" y="22" width="1" height="1" fill="#2d8ac7"/>
    <rect x="23" y="22" width="1" height="1" fill="#dbebf3"/>
    <rect x="24" y="22" width="2" height="1" fill="#fefefd"/>
    <rect x="26" y="22" width="1" height="1" fill="#fefefe"/>
    <rect x="27" y="22" width="1" height="1" fill="#fefefd"/>
    <rect x="28" y="22" width="1" height="1" fill="#fefffe"/>
    <rect x="29" y="22" width="1" height="1" fill="#519ed0"/>
    <rect x="10" y="23" width="1" height="1" fill="#c3dcec"/>
    <rect x="11" y="23" width="1" height="1" fill="#fefdfd"/>
    <rect x="12" y="23" width="2" height="1" fill="#fefefe"/>
    <rect x="14" y="23" width="1" height="1" fill="#fdfdfd"/>
    <rect x="15" y="23" width="1" height="1" fill="#fefefd"/>
    <rect x="16" y="23" width="1" height="1" fill="#93c2df"/>
    <rect x="22" y="23" width="1" height="1" fill="#2d89c7"/>
    <rect x="23" y="23" width="1" height="1" fill="#dcebf3"/>
    <rect x="24" y="23" width="1" height="1" fill="#fefefe"/>
    <rect x="25" y="23" width="1" height="1" fill="#fefefd"/>
    <rect x="26" y="23" width="1" height="1" fill="#fefefe"/>
    <rect x="27" y="23" width="1" height="1" fill="#fefefd"/>
    <rect x="28" y="23" width="1" height="1" fill="#fefefe"/>
    <rect x="29" y="23" width="1" height="1" fill="#529ed0"/>
    <rect x="10" y="24" width="1" height="1" fill="#c3ddec"/>
    <rect x="11" y="24" width="1" height="1" fill="#fefefd"/>
    <rect x="12" y="24" width="2" height="1" fill="#fefefe"/>
    <rect x="14" y="24" width="1" height="1" fill="#fefefd"/>
    <rect x="15" y="24" width="1" height="1" fill="#fdfefd"/>
    <rect x="16" y="24" width="1" height="1" fill="#93c2df"/>
    <rect x="22" y="24" width="1" height="1" fill="#2d89c7"/>
    <rect x="23" y="24" width="1" height="1" fill="#dcebf3"/>
    <rect x="24" y="24" width="1" height="1" fill="#fefefd"/>
    <rect x="25" y="24" width="1" height="1" fill="#fefffe"/>
    <rect x="26" y="24" width="2" height="1" fill="#fefefd"/>
    <rect x="28" y="24" width="1" height="1" fill="#fefefe"/>
    <rect x="29" y="24" width="1" height="1" fill="#529ed0"/>
    <rect x="10" y="25" width="1" height="1" fill="#c4ddec"/>
    <rect x="11" y="25" width="1" height="1" fill="#fefefd"/>
    <rect x="12" y="25" width="2" height="1" fill="#fefefe"/>
    <rect x="14" y="25" width="1" height="1" fill="#fefffe"/>
    <rect x="15" y="25" width="1" height="1" fill="#fefefe"/>
    <rect x="16" y="25" width="1" height="1" fill="#93c2df"/>
    <rect x="22" y="25" width="1" height="1" fill="#2d8ac7"/>
    <rect x="23" y="25" width="1" height="1" fill="#dceaf3"/>
    <rect x="24" y="25" width="3" height="1" fill="#fefffe"/>
    <rect x="27" y="25" width="1" height="1" fill="#fefefd"/>
    <rect x="28" y="25" width="1" height="1" fill="#fffffe"/>
    <rect x="29" y="25" width="1" height="1" fill="#529fd0"/>
    <rect x="10" y="26" width="1" height="1" fill="#c4ddec"/>
    <rect x="11" y="26" width="1" height="1" fill="#fdfefd"/>
    <rect x="12" y="26" width="1" height="1" fill="#fefefd"/>
    <rect x="13" y="26" width="1" height="1" fill="#fefefe"/>
    <rect x="14" y="26" width="2" height="1" fill="#fefefd"/>
    <rect x="16" y="26" width="1" height="1" fill="#94c2df"/>
    <rect x="22" y="26" width="1" height="1" fill="#2d89c7"/>
    <rect x="23" y="26" width="1" height="1" fill="#dcebf3"/>
    <rect x="24" y="26" width="2" height="1" fill="#fefefe"/>
    <rect x="26" y="26" width="2" height="1" fill="#fefefd"/>
    <rect x="28" y="26" width="1" height="1" fill="#fefefe"/>
    <rect x="29" y="26" width="1" height="1" fill="#529dcf"/>
    <rect x="10" y="27" width="1" height="1" fill="#c5ddec"/>
    <rect x="11" y="27" width="1" height="1" fill="#fdfdfd"/>
    <rect x="12" y="27" width="1" height="1" fill="#fefefd"/>
    <rect x="13" y="27" width="1" height="1" fill="#fefefe"/>
    <rect x="14" y="27" width="1" height="1" fill="#fdfdfd"/>
    <rect x="15" y="27" width="1" height="1" fill="#fefefe"/>
    <rect x="16" y="27" width="1" height="1" fill="#93c2df"/>
    <rect x="22" y="27" width="1" height="1" fill="#2c88c6"/>
    <rect x="23" y="27" width="1" height="1" fill="#dbebf3"/>
    <rect x="24" y="27" width="3" height="1" fill="#fefefe"/>
    <rect x="27" y="27" width="1" height="1" fill="#fefefd"/>
    <rect x="28" y="27" width="1" height="1" fill="#fefefe"/>
    <rect x="29" y="27" width="1" height="1" fill="#529ecf"/>
    <rect x="10" y="28" width="1" height="1" fill="#c4ddec"/>
    <rect x="11" y="28" width="1" height="1" fill="#fefefd"/>
    <rect x="12" y="28" width="1" height="1" fill="#fefffe"/>
    <rect x="13" y="28" width="1" height="1" fill="#fefefe"/>
    <rect x="14" y="28" width="1" height="1" fill="#fefefd"/>
    <rect x="15" y="28" width="1" height="1" fill="#fdfefd"/>
    <rect x="16" y="28" width="1" height="1" fill="#94c2df"/>
    <rect x="22" y="28" width="1" height="1" fill="#2d8ac5"/>
    <rect x="23" y="28" width="1" height="1" fill="#dbebf3"/>
    <rect x="24" y="28" width="1" height="1" fill="#fefefe"/>
    <rect x="25" y="28" width="2" height="1" fill="#fefffe"/>
    <rect x="27" y="28" width="1" height="1" fill="#fefefe"/>
    <rect x="28" y="28" width="1" height="1" fill="#fffefe"/>
    <rect x="29" y="28" width="1" height="1" fill="#529fce"/>
    <rect x="10" y="29" width="1" height="1" fill="#c4ddec"/>
    <rect x="11" y="29" width="1" height="1" fill="#fefefd"/>
    <rect x="12" y="29" width="1" height="1" fill="#fefefe"/>
    <rect x="13" y="29" width="1" height="1" fill="#fefffe"/>
    <rect x="14" y="29" width="1" height="1" fill="#fefefe"/>
    <rect x="15" y="29" width="1" height="1" fill="#fefefd"/>
    <rect x="16" y="29" width="1" height="1" fill="#93c2df"/>
    <rect x="22" y="29" width="1" height="1" fill="#2d8ac6"/>
    <rect x="23" y="29" width="1" height="1" fill="#dbebf3"/>
    <rect x="24" y="29" width="1" height="1" fill="#fffffe"/>
    <rect x="25" y="29" width="1" height="1" fill="#fefffd"/>
    <rect x="26" y="29" width="2" height="1" fill="#fefefe"/>
    <rect x="28" y="29" width="1" height="1" fill="#fefffe"/>
    <rect x="29" y="29" width="1" height="1" fill="#529fcf"/>
    <rect x="10" y="30" width="1" height="1" fill="#c3ddec"/>
    <rect x="11" y="30" width="1" height="1" fill="#fefdfd"/>
    <rect x="12" y="30" width="3" height="1" fill="#fefefe"/>
    <rect x="15" y="30" width="1" height="1" fill="#fefefd"/>
    <rect x="16" y="30" width="1" height="1" fill="#93c2e0"/>
    <rect x="22" y="30" width="1" height="1" fill="#2d89c6"/>
    <rect x="23" y="30" width="1" height="1" fill="#dcebf3"/>
    <rect x="24" y="30" width="3" height="1" fill="#fefefe"/>
    <rect x="27" y="30" width="1" height="1" fill="#fefefd"/>
    <rect x="28" y="30" width="1" height="1" fill="#fefefe"/>
    <rect x="29" y="30" width="1" height="1" fill="#529ed0"/>
    <rect x="10" y="31" width="1" height="1" fill="#c3dcec"/>
    <rect x="11" y="31" width="1" height="1" fill="#fefefd"/>
    <rect x="12" y="31" width="1" height="1" fill="#fefffe"/>
    <rect x="13" y="31" width="1" height="1" fill="#fefefe"/>
    <rect x="14" y="31" width="1" height="1" fill="#fdfefd"/>
    <rect x="15" y="31" width="1" height="1" fill="#fefefd"/>
    <rect x="16" y="31" width="1" height="1" fill="#93c2e0"/>
    <rect x="22" y="31" width="1" height="1" fill="#2e89c6"/>
    <rect x="23" y="31" width="1" height="1" fill="#dcebf3"/>
    <rect x="24" y="31" width="1" height="1" fill="#fefefe"/>
    <rect x="25" y="31" width="1" height="1" fill="#fefefd"/>
    <rect x="26" y="31" width="1" height="1" fill="#fefffe"/>
    <rect x="27" y="31" width="1" height="1" fill="#fefefd"/>
    <rect x="28" y="31" width="1" height="1" fill="#fefefe"/>
    <rect x="29" y="31" width="1" height="1" fill="#529fd0"/>
    <rect x="10" y="32" width="1" height="1" fill="#c3ddeb"/>
    <rect x="11" y="32" width="1" height="1" fill="#fdfefd"/>
    <rect x="12" y="32" width="1" height="1" fill="#fefefe"/>
    <rect x="13" y="32" width="1" height="1" fill="#fefffe"/>
    <rect x="14" y="32" width="1" height="1" fill="#fefffd"/>
    <rect x="15" y="32" width="1" height="1" fill="#fefefd"/>
    <rect x="16" y="32" width="1" height="1" fill="#93c1df"/>
    <rect x="22" y="32" width="1" height="1" fill="#2e8ac6"/>
    <rect x="23" y="32" width="1" height="1" fill="#dcebf3"/>
    <rect x="24" y="32" width="3" height="1" fill="#fefffe"/>
    <rect x="27" y="32" width="1" height="1" fill="#fefefd"/>
    <rect x="28" y="32" width="1" height="1" fill="#fffffe"/>
    <rect x="29" y="32" width="1" height="1" fill="#52a0d0"/>
    <rect x="10" y="33" width="1" height="1" fill="#c4ddeb"/>
    <rect x="11" y="33" width="1" height="1" fill="#fefefd"/>
    <rect x="12" y="33" width="1" height="1" fill="#fefefe"/>
    <rect x="13" y="33" width="1" height="1" fill="#fefffe"/>
    <rect x="14" y="33" width="2" height="1" fill="#fefefd"/>
    <rect x="16" y="33" width="1" height="1" fill="#93c2de"/>
    <rect x="22" y="33" width="1" height="1" fill="#2e89c5"/>
    <rect x="23" y="33" width="1" height="1" fill="#dcebf3"/>
    <rect x="24" y="33" width="1" height="1" fill="#fefefd"/>
    <rect x="25" y="33" width="2" height="1" fill="#fefefe"/>
    <rect x="27" y="33" width="1" height="1" fill="#fefefd"/>
    <rect x="28" y="33" width="1" height="1" fill="#fefefe"/>
    <rect x="29" y="33" width="1" height="1" fill="#529ecf"/>
    <rect x="10" y="34" width="1" height="1" fill="#c4ddeb"/>
    <rect x="11" y="34" width="1" height="1" fill="#fdfdfd"/>
    <rect x="12" y="34" width="1" height="1" fill="#fefefe"/>
    <rect x="13" y="34" width="1" height="1" fill="#fefefd"/>
    <rect x="14" y="34" width="1" height="1" fill="#fefdfd"/>
    <rect x="15" y="34" width="1" height="1" fill="#fdfefd"/>
    <rect x="16" y="34" width="1" height="1" fill="#93c2de"/>
    <rect x="22" y="34" width="1" height="1" fill="#2e8ac6"/>
    <rect x="23" y="34" width="1" height="1" fill="#dcebf3"/>
    <rect x="24" y="34" width="1" height="1" fill="#fefefe"/>
    <rect x="25" y="34" width="1" height="1" fill="#fefefd"/>
    <rect x="26" y="34" width="1" height="1" fill="#fefefe"/>
    <rect x="27" y="34" width="2" height="1" fill="#fefefd"/>
    <rect x="29" y="34" width="1" height="1" fill="#529ecf"/>
    <rect x="10" y="35" width="1" height="1" fill="#c4ddeb"/>
    <rect x="11" y="35" width="1" height="1" fill="#fefefd"/>
    <rect x="12" y="35" width="1" height="1" fill="#fefffe"/>
    <rect x="13" y="35" width="1" height="1" fill="#fefefe"/>
    <rect x="14" y="35" width="2" height="1" fill="#fefefd"/>
    <rect x="16" y="35" width="1" height="1" fill="#93c2df"/>
    <rect x="22" y="35" width="1" height="1" fill="#2d8ac5"/>
    <rect x="23" y="35" width="1" height="1" fill="#dcebf3"/>
    <rect x="24" y="35" width="3" height="1" fill="#fefefe"/>
    <rect x="27" y="35" width="1" height="1" fill="#fefefd"/>
    <rect x="28" y="35" width="1" height="1" fill="#fefefe"/>
    <rect x="29" y="35" width="1" height="1" fill="#539fcf"/>
    <rect x="10" y="36" width="1" height="1" fill="#c3ddeb"/>
    <rect x="11" y="36" width="1" height="1" fill="#fefefd"/>
    <rect x="12" y="36" width="1" height="1" fill="#fefefe"/>
    <rect x="13" y="36" width="2" height="1" fill="#fefffd"/>
    <rect x="15" y="36" width="1" height="1" fill="#fefefd"/>
    <rect x="16" y="36" width="1" height="1" fill="#93c2de"/>
    <rect x="22" y="36" width="1" height="1" fill="#2d8ac5"/>
    <rect x="23" y="36" width="1" height="1" fill="#dbebf3"/>
    <rect x="24" y="36" width="1" height="1" fill="#fffffe"/>
    <rect x="25" y="36" width="1" height="1" fill="#fefffe"/>
    <rect x="26" y="36" width="2" height="1" fill="#fefefe"/>
    <rect x="28" y="36" width="1" height="1" fill="#fefffd"/>
    <rect x="29" y="36" width="1" height="1" fill="#56a1d0"/>
    <rect x="10" y="37" width="1" height="1" fill="#c3dceb"/>
    <rect x="11" y="37" width="1" height="1" fill="#fefefd"/>
    <rect x="12" y="37" width="2" height="1" fill="#fefefe"/>
    <rect x="14" y="37" width="1" height="1" fill="#fefefd"/>
    <rect x="15" y="37" width="1" height="1" fill="#fefdfd"/>
    <rect x="16" y="37" width="1" height="1" fill="#93c2de"/>
    <rect x="22" y="37" width="1" height="1" fill="#2e89c5"/>
    <rect x="23" y="37" width="1" height="1" fill="#dbebf3"/>
    <rect x="24" y="37" width="5" height="1" fill="#fefefe"/>
    <rect x="29" y="37" width="1" height="1" fill="#b6d4e7"/>
    <rect x="30" y="37" width="1" height="1" fill="#94c2df"/>
    <rect x="31" y="37" width="1" height="1" fill="#94c3df"/>
    <rect x="32" y="37" width="2" height="1" fill="#94c2df"/>
    <rect x="34" y="37" width="2" height="1" fill="#94c3df"/>
    <rect x="36" y="37" width="1" height="1" fill="#93c2de"/>
    <rect x="37" y="37" width="1" height="1" fill="#94c2df"/>
    <rect x="38" y="37" width="1" height="1" fill="#94c3df"/>
    <rect x="39" y="37" width="1" height="1" fill="#93c2df"/>
    <rect x="40" y="37" width="2" height="1" fill="#94c2df"/>
    <rect x="42" y="37" width="1" height="1" fill="#93c2de"/>
    <rect x="43" y="37" width="1" height="1" fill="#3c92ca"/>
    <rect x="10" y="38" width="1" height="1" fill="#c3dcec"/>
    <rect x="11" y="38" width="1" height="1" fill="#fefefd"/>
    <rect x="12" y="38" width="2" height="1" fill="#fefefe"/>
    <rect x="14" y="38" width="2" height="1" fill="#fefefd"/>
    <rect x="16" y="38" width="1" height="1" fill="#93c2de"/>
    <rect x="22" y="38" width="1" height="1" fill="#2d89c5"/>
    <rect x="23" y="38" width="1" height="1" fill="#dbebf3"/>
    <rect x="24" y="38" width="2" height="1" fill="#fefefe"/>
    <rect x="26" y="38" width="1" height="1" fill="#fefffe"/>
    <rect x="27" y="38" width="6" height="1" fill="#fefefe"/>
    <rect x="33" y="38" width="1" height="1" fill="#fefffe"/>
    <rect x="34" y="38" width="9" height="1" fill="#fefefe"/>
    <rect x="43" y="38" width="1" height="1" fill="#7ab4d8"/>
    <rect x="10" y="39" width="1" height="1" fill="#c3ddec"/>
    <rect x="11" y="39" width="1" height="1" fill="#fdfefd"/>
    <rect x="12" y="39" width="2" height="1" fill="#fefefe"/>
    <rect x="14" y="39" width="2" height="1" fill="#fefefd"/>
    <rect x="16" y="39" width="1" height="1" fill="#93c2de"/>
    <rect x="22" y="39" width="1" height="1" fill="#2c89c6"/>
    <rect x="23" y="39" width="1" height="1" fill="#dbeaf3"/>
    <rect x="24" y="39" width="1" height="1" fill="#fefefe"/>
    <rect x="25" y="39" width="2" height="1" fill="#fefffe"/>
    <rect x="27" y="39" width="1" height="1" fill="#fefefe"/>
    <rect x="28" y="39" width="1" height="1" fill="#fefffd"/>
    <rect x="29" y="39" width="5" height="1" fill="#fefffe"/>
    <rect x="34" y="39" width="1" height="1" fill="#fefefe"/>
    <rect x="35" y="39" width="2" height="1" fill="#fefffe"/>
    <rect x="37" y="39" width="2" height="1" fill="#fefefe"/>
    <rect x="39" y="39" width="1" height="1" fill="#fffffe"/>
    <rect x="40" y="39" width="1" height="1" fill="#fefffe"/>
    <rect x="41" y="39" width="1" height="1" fill="#fefefe"/>
    <rect x="42" y="39" width="1" height="1" fill="#fefffe"/>
    <rect x="43" y="39" width="1" height="1" fill="#7cb7da"/>
    <rect x="10" y="40" width="1" height="1" fill="#c3ddec"/>
    <rect x="11" y="40" width="1" height="1" fill="#fefefd"/>
    <rect x="12" y="40" width="2" height="1" fill="#fefefe"/>
    <rect x="14" y="40" width="1" height="1" fill="#fdfefd"/>
    <rect x="15" y="40" width="1" height="1" fill="#fefefd"/>
    <rect x="16" y="40" width="1" height="1" fill="#94c2de"/>
    <rect x="22" y="40" width="1" height="1" fill="#2c88c6"/>
    <rect x="23" y="40" width="1" height="1" fill="#dbeaf3"/>
    <rect x="24" y="40" width="1" height="1" fill="#fefffd"/>
    <rect x="25" y="40" width="1" height="1" fill="#fefffe"/>
    <rect x="26" y="40" width="2" height="1" fill="#fefefe"/>
    <rect x="28" y="40" width="1" height="1" fill="#fffffe"/>
    <rect x="29" y="40" width="2" height="1" fill="#fefefe"/>
    <rect x="31" y="40" width="1" height="1" fill="#fffffe"/>
    <rect x="32" y="40" width="1" height="1" fill="#fefffe"/>
    <rect x="33" y="40" width="1" height="1" fill="#fefefe"/>
    <rect x="34" y="40" width="2" height="1" fill="#fefffe"/>
    <rect x="36" y="40" width="2" height="1" fill="#fefefe"/>
    <rect x="38" y="40" width="2" height="1" fill="#fefffe"/>
    <rect x="40" y="40" width="2" height="1" fill="#fefefe"/>
    <rect x="42" y="40" width="1" height="1" fill="#fefffd"/>
    <rect x="43" y="40" width="1" height="1" fill="#7db6db"/>
    <rect x="10" y="41" width="1" height="1" fill="#c2dceb"/>
    <rect x="11" y="41" width="1" height="1" fill="#fdfdfd"/>
    <rect x="12" y="41" width="1" height="1" fill="#fefefe"/>
    <rect x="13" y="41" width="1" height="1" fill="#fefefd"/>
    <rect x="14" y="41" width="1" height="1" fill="#fdfdfd"/>
    <rect x="15" y="41" width="1" height="1" fill="#fefefd"/>
    <rect x="16" y="41" width="1" height="1" fill="#93c1dd"/>
    <rect x="22" y="41" width="1" height="1" fill="#2c88c6"/>
    <rect x="23" y="41" width="1" height="1" fill="#daeaf2"/>
    <rect x="24" y="41" width="1" height="1" fill="#fefefe"/>
    <rect x="25" y="41" width="2" height="1" fill="#fefefd"/>
    <rect x="27" y="41" width="2" height="1" fill="#fefefe"/>
    <rect x="29" y="41" width="1" height="1" fill="#fefefd"/>
    <rect x="30" y="41" width="10" height="1" fill="#fefefe"/>
    <rect x="40" y="41" width="1" height="1" fill="#fefefd"/>
    <rect x="41" y="41" width="2" height="1" fill="#fefefe"/>
    <rect x="43" y="41" width="1" height="1" fill="#7cb5da"/>
    <rect x="10" y="42" width="1" height="1" fill="#c3dbeb"/>
    <rect x="11" y="42" width="5" height="1" fill="#fefefd"/>
    <rect x="16" y="42" width="1" height="1" fill="#92c0dd"/>
    <rect x="22" y="42" width="1" height="1" fill="#2c89c5"/>
    <rect x="23" y="42" width="1" height="1" fill="#dbeaf2"/>
    <rect x="24" y="42" width="5" height="1" fill="#fefefd"/>
    <rect x="29" y="42" width="1" height="1" fill="#fefffe"/>
    <rect x="30" y="42" width="2" height="1" fill="#fefefe"/>
    <rect x="32" y="42" width="1" height="1" fill="#fefefd"/>
    <rect x="33" y="42" width="1" height="1" fill="#fefffe"/>
    <rect x="34" y="42" width="1" height="1" fill="#fefefe"/>
    <rect x="35" y="42" width="2" height="1" fill="#fefefd"/>
    <rect x="37" y="42" width="1" height="1" fill="#fefefe"/>
    <rect x="38" y="42" width="1" height="1" fill="#fefefd"/>
    <rect x="39" y="42" width="1" height="1" fill="#fefffd"/>
    <rect x="40" y="42" width="2" height="1" fill="#fefefd"/>
    <rect x="42" y="42" width="1" height="1" fill="#fefefe"/>
    <rect x="43" y="42" width="1" height="1" fill="#7bb5d9"/>
    <rect x="10" y="43" width="1" height="1" fill="#61a8d5"/>
    <rect x="11" y="43" width="1" height="1" fill="#99c5df"/>
    <rect x="12" y="43" width="1" height="1" fill="#99c5e0"/>
    <rect x="13" y="43" width="1" height="1" fill="#9ac5e0"/>
    <rect x="14" y="43" width="1" height="1" fill="#9ac6e0"/>
    <rect x="15" y="43" width="1" height="1" fill="#98c4df"/>
    <rect x="16" y="43" width="1" height="1" fill="#4899ce"/>
    <rect x="22" y="43" width="1" height="1" fill="#107cc4"/>
    <rect x="23" y="43" width="1" height="1" fill="#7bb5da"/>
    <rect x="24" y="43" width="1" height="1" fill="#99c5df"/>
    <rect x="25" y="43" width="1" height="1" fill="#9ac6e0"/>
    <rect x="26" y="43" width="2" height="1" fill="#9ac5e0"/>
    <rect x="28" y="43" width="1" height="1" fill="#9ac6df"/>
    <rect x="29" y="43" width="1" height="1" fill="#9ac6e0"/>
    <rect x="30" y="43" width="1" height="1" fill="#9ac5e0"/>
    <rect x="31" y="43" width="1" height="1" fill="#9ac6e0"/>
    <rect x="32" y="43" width="1" height="1" fill="#9ac5df"/>
    <rect x="33" y="43" width="2" height="1" fill="#9ac5e0"/>
    <rect x="35" y="43" width="1" height="1" fill="#9ac5df"/>
    <rect x="36" y="43" width="3" height="1" fill="#99c5e0"/>
    <rect x="39" y="43" width="1" height="1" fill="#9ac6df"/>
    <rect x="40" y="43" width="1" height="1" fill="#9ac6e0"/>
    <rect x="41" y="43" width="1" height="1" fill="#99c5df"/>
    <rect x="42" y="43" width="1" height="1" fill="#9ac6e0"/>
    <rect x="43" y="43" width="1" height="1" fill="#3891ca"/>
  </g>
</svg>
